<?xml version="1.0" encoding="UTF-8"?><svg xmlns="http://www.w3.org/2000/svg" xmlns:xlink="http://www.w3.org/1999/xlink" width="150.469" height="40.461" viewBox="0 0 150.469 40.461">
  <defs>
    <clipPath id="clip-path">
      <rect id="Rectángulo_5" data-name="Rectángulo 5" width="150" height="40" transform="translate(-0.033 -0.373)" fill="none"/>
    </clipPath>
  </defs>
  <g id="LOGO_MXM_MENÚ" data-name="LOGO MXM MENÚ" transform="translate(0.033 0.373)">
    <path id="Trazado_238" data-name="Trazado 238" d="M100.155,15.008h34.833V25.1H100.155Zm-4.6,25.079h43.952V0H95.559Z" transform="translate(10.926 0.001)" fill="#fff"/>
    <g id="Grupo_10" data-name="Grupo 10" transform="translate(0 0)">
      <g id="Grupo_9" data-name="Grupo 9" clip-path="url(#clip-path)">
        <path id="Trazado_239" data-name="Trazado 239" d="M43.38,40.117H0V0H43.38ZM38.756,13.764H34.749q-2,0-3.994,0c-1.32,0-2.639-.01-4.049-.015V2.243H16.448V13.768H4.577V24.346c3.979.022,7.9-.016,11.9.022V35.9H26.753V24.33h12Z" transform="translate(0 0.001)" fill="#fff"/>
        <path id="Trazado_240" data-name="Trazado 240" d="M52.332,28.645l9.252-8.967-9.253-9.088,8.061-7.782,9.424,8.886,9.417-8.887c2.7,2.61,5.355,5.167,8.067,7.785-3.082,3.024-6.13,6.014-9.258,9.081L87.3,28.651l-8.066,7.892-9.42-8.86-9.426,8.863-8.057-7.9" transform="translate(5.983 0.321)" fill="#fff"/>
      </g>
    </g>
  </g>
</svg>
